<svg xmlns="http://www.w3.org/2000/svg" width="30" height="30" viewBox="0 0 30 30"><defs><style>.a{fill:#fff;opacity:0.58;}</style></defs><path class="a" d="M26.264,30H3.764a3.615,3.615,0,0,1-2.652-1.1,3.606,3.606,0,0,1-1.1-2.652V3.75A3.615,3.615,0,0,1,1.114,1.1,3.609,3.609,0,0,1,3.765,0h22.5a3.615,3.615,0,0,1,2.652,1.1,3.609,3.609,0,0,1,1.1,2.652v22.5A3.751,3.751,0,0,1,26.265,30ZM23.832,7.5a4.5,4.5,0,0,0-.527.337q-.351.249-.571.381a5.571,5.571,0,0,1-.542.279,2.815,2.815,0,0,1-.616.205A3.452,3.452,0,0,0,18.91,7.5q-3.427,0-3.427,2.871v1.757A9.348,9.348,0,0,1,8.247,8.642a2.366,2.366,0,0,0-.732,1.67A3.337,3.337,0,0,0,8.95,13.242q-.205,0-.513.029a2.1,2.1,0,0,1-.5,0,1.46,1.46,0,0,1-.425-.147,3.466,3.466,0,0,0,.717,2.241,3.309,3.309,0,0,0,1.978,1.157,1.009,1.009,0,0,1-.82.351,1.328,1.328,0,0,1-.82-.264,1.955,1.955,0,0,0,1.1,1.773,5.112,5.112,0,0,0,2.476.659,3.172,3.172,0,0,1-1.538,1.186,5.858,5.858,0,0,1-2.153.4,4.393,4.393,0,0,1-1.128-.205q-.717-.205-.747-.205A3.825,3.825,0,0,0,8.5,21.824a8.737,8.737,0,0,0,3.677.674,9.662,9.662,0,0,0,3.662-.688,9.121,9.121,0,0,0,2.9-1.831A11.978,11.978,0,0,0,20.8,17.371a12.258,12.258,0,0,0,1.289-3.032,11.784,11.784,0,0,0,.425-3.09q0-.058.351-.249t.82-.5a2.25,2.25,0,0,0,.7-.688q-1.582,0-2.109.058A3.937,3.937,0,0,0,23.831,7.5Z" transform="translate(-0.015)"/></svg>